<svg width="160" height="160" viewBox="0 0 160 160" xmlns="http://www.w3.org/2000/svg">
  <!-- 外框 -->
  <rect x="26" y="26" width="108" height="108" rx="3" fill="none" stroke="#C0392B" stroke-width="0.8" opacity="0.22"/>
  <!-- 周围8格 -->
  <rect x="33" y="33"  width="28" height="28" rx="1" fill="#C0392B" opacity="0.08"/>
  <rect x="66" y="33"  width="28" height="28" rx="1" fill="#C0392B" opacity="0.08"/>
  <rect x="99" y="33"  width="28" height="28" rx="1" fill="#C0392B" opacity="0.08"/>
  <rect x="33" y="66"  width="28" height="28" rx="1" fill="#C0392B" opacity="0.08"/>
  <rect x="99" y="66"  width="28" height="28" rx="1" fill="#C0392B" opacity="0.08"/>
  <rect x="33" y="99"  width="28" height="28" rx="1" fill="#C0392B" opacity="0.08"/>
  <rect x="66" y="99"  width="28" height="28" rx="1" fill="#C0392B" opacity="0.08"/>
  <rect x="99" y="99"  width="28" height="28" rx="1" fill="#C0392B" opacity="0.08"/>
  <!-- 中心格 -->
  <rect x="66" y="66" width="28" height="28" rx="1" fill="#C0392B"/>
  <rect x="73" y="73" width="14" height="14" rx="0" fill="none" stroke="#ffffff" stroke-width="1.2" opacity="0.7"/>
  <rect x="76" y="76" width="8"  height="8"  rx="0" fill="#ffffff" opacity="0.55"/>
  <!-- 格线 -->
  <line x1="61" y1="33"  x2="61" y2="127" stroke="#C0392B" stroke-width="0.5" opacity="0.18"/>
  <line x1="94" y1="33"  x2="94" y2="127" stroke="#C0392B" stroke-width="0.5" opacity="0.18"/>
  <line x1="33" y1="61"  x2="127" y2="61"  stroke="#C0392B" stroke-width="0.5" opacity="0.18"/>
  <line x1="33" y1="94"  x2="127" y2="94"  stroke="#C0392B" stroke-width="0.5" opacity="0.18"/>
</svg>
